<svg xmlns="http://www.w3.org/2000/svg" width="1947.667" height="2500" viewBox="0 0 1947.667 2500">
  <g id="main_wave" transform="translate(12)">
    <rect id="Rectangle_2" data-name="Rectangle 2" width="1942" height="1250" transform="translate(-7.333)" fill="none"/>
    <path id="Path_5" data-name="Path 5" d="M-16.947-287.7s448.385-168.79,633.785-62S834.481-53.464,1056.155-125.8c88-28.718,91.625-37.488,146.036-48.683,25.9-5.329,17.456-5.743,35.106-4.767s7.105-.867,35.493,8.669c54.176,18.2,66.5,82.673,146.1,68.894s78.593-88.7,173.308-124.009,135.019-42.2,205.552-17.223,46.35,75.783,76.578,117.12,44.335,48.226,44.335,48.226v1684.46H-24Z" transform="translate(12 893.117)" fill="#fbff8d"/>
    <path id="Path_2" data-name="Path 2" d="M-16.947-290.312s448.385-164.271,633.785-60.345S834.481-62.343,1056.155-132.745c88-27.949,91.625-36.484,146.036-47.379,25.9-5.186,17.456-5.589,35.106-4.64s7.105-.844,35.493,8.437c54.176,17.712,66.5,80.459,146.1,67.049S1497.487-195.6,1592.2-229.967s135.019-41.068,205.552-16.762,46.35,73.754,76.578,113.984,44.335,46.935,44.335,46.935V1553.55H-24Z" transform="translate(17 946.451)" fill="#f8fc81"/>
  </g>
</svg>
