<svg xmlns="http://www.w3.org/2000/svg" width="1467.33" height="1144" viewBox="0 0 1467.33 1144">
  <g id="side_weve" transform="translate(-452.67 -1044)">
    <path id="Path_4" data-name="Path 4" d="M2262.912-237c-412.106,15.208-635,196-635,196s-75.712,60.715-244,104-308.914-22.822-456,38.011S796.029,344.34,796.029,344.34,827.8,538.174,1023.912,623.574C1166.878,685.829,1396.3,610.453,1644.091,659s93.115,78,247.821,136,371,112,371,112Z" transform="translate(-342.912 1281)" fill="#fbff8d"/>
    <path id="Path_3" data-name="Path 3" d="M2174.912-209c-387.385,14.558-616.577,171.34-616.577,171.34s-51.07,83.99-209.263,125.425S1063.828,69.847,925.565,128.08,796.022,320.7,796.022,320.7,801,476.358,985.354,558.109c134.39,59.6,374.929-16.582,607.858,29.891s178.434,92,323.859,156,257.841,100,257.841,100Z" transform="translate(-254.912 1308)" fill="#fbff75"/>
  </g>
</svg>
